<svg width="24" height="24" viewBox="0 0 24 24" fill="none" xmlns="http://www.w3.org/2000/svg">
<rect width="24" height="24" fill="white"/>
<path d="M15.4353 17.6639L15.4336 17.6798H8.60742C8.60742 17.6798 8.45508 16.7423 8.31445 16.3497C8.17383 15.9571 7.97461 15.4708 7.83398 15.1075C7.69336 14.7442 7.43555 14.2989 7.25391 13.9708C7.07227 13.6427 6.76172 13.2032 6.57422 12.9161C6.38672 12.629 5.89453 11.8614 5.80664 11.7149C5.71875 11.5685 5.51953 11.211 5.41406 10.8712C5.30859 10.5314 5.20898 10.0274 5.15039 9.75205C5.0918 9.47666 5.03906 9.03135 5.03906 8.55088C5.03906 8.07041 5.04492 8.1583 5.10352 7.63682C5.16211 7.11534 5.34375 6.54698 5.54297 5.99619C5.74219 5.44541 6.5625 4.20323 6.89062 3.8458C7.15313 3.55987 7.61719 3.15244 7.81641 2.98448C8.27148 2.67002 9.37969 2.00596 10.1719 1.86534C10.9641 1.72471 11.6367 1.65049 11.8359 1.66612C11.8359 1.66612 12.5215 1.6544 13.2305 1.79502C13.9395 1.93565 14.6199 2.08854 15.5801 2.63877C16.623 3.23643 17.0625 3.68174 17.4141 4.12119C17.7656 4.56065 18.5098 5.88487 18.6855 6.38291C18.8613 6.88096 18.9609 7.95908 18.9492 8.55088C18.9375 9.14268 18.7852 9.69346 18.6855 10.1739C18.5742 10.7423 18.1699 11.6622 18.0059 11.9142C17.8418 12.1661 16.6699 13.8067 16.5 14.211C16.3301 14.6153 15.7793 16.0274 15.6328 16.5079C15.5172 16.8871 15.4757 17.2803 15.4353 17.6639Z" fill="url(#paint0_linear)"/>
<path d="M8.4082 22.3321H14.6484C14.877 22.2638 15.3352 22.0028 15.3398 21.506C15.3445 21.0091 14.8809 20.6739 14.6484 20.5685H9.30469C9.0918 20.504 8.66602 20.2392 8.66602 19.6954C8.66602 19.1517 9.0918 18.8067 9.30469 18.7403H14.6484C14.6992 18.7364 14.9039 18.7321 15.082 18.5587C15.2602 18.3853 15.3066 18.2247 15.3633 18.1544C15.4043 17.7657 15.5156 16.8923 15.6328 16.5079C15.7793 16.0274 16.3301 14.6153 16.5 14.211C16.6699 13.8067 17.8418 12.1661 18.0059 11.9142C18.1699 11.6622 18.5742 10.7423 18.6855 10.1739C18.7852 9.69346 18.9375 9.14268 18.9492 8.55088C18.9609 7.95908 18.8613 6.88096 18.6855 6.38291C18.5098 5.88487 17.7656 4.56065 17.4141 4.12119C17.0625 3.68174 16.623 3.23643 15.5801 2.63877C14.6199 2.08854 13.9395 1.93565 13.2305 1.79502C12.5215 1.6544 11.8359 1.66612 11.8359 1.66612C11.6367 1.65049 10.9641 1.72471 10.1719 1.86534C9.37969 2.00596 8.27148 2.67002 7.81641 2.98448C7.61719 3.15244 7.15312 3.55987 6.89062 3.8458C6.5625 4.20323 5.74219 5.44541 5.54297 5.99619C5.34375 6.54698 5.16211 7.11534 5.10352 7.63682C5.04492 8.1583 5.03906 8.07041 5.03906 8.55088C5.03906 9.03135 5.0918 9.47666 5.15039 9.75205C5.20898 10.0274 5.30859 10.5314 5.41406 10.8712C5.51953 11.211 5.71875 11.5685 5.80664 11.7149C5.89453 11.8614 6.38672 12.629 6.57422 12.9161C6.76172 13.2032 7.07227 13.6427 7.25391 13.9708C7.43555 14.2989 7.69336 14.7442 7.83398 15.1075C7.97461 15.4708 8.17383 15.9571 8.31445 16.3497C8.45508 16.7423 8.60742 17.6798 8.60742 17.6798" stroke="black" stroke-width="0.386719"/>
<g clip-path="url(#clip0)">
<path d="M15.141 8.0997C15.141 8.03483 15.141 7.97585 15.141 7.91097C15.1351 7.77531 15.1292 7.63376 15.1056 7.49811C15.0821 7.36245 15.0408 7.23269 14.9759 7.10884C14.911 6.98498 14.8343 6.87291 14.7341 6.77855C14.6338 6.67828 14.5217 6.6016 14.4038 6.53673C14.2799 6.47185 14.1502 6.43056 14.0145 6.40697C13.8789 6.38338 13.7432 6.37158 13.6017 6.37158C13.5368 6.37158 13.4778 6.37158 13.4129 6.37158C13.3362 6.37158 13.2655 6.37158 13.1888 6.37158H11.5314H10.8473C10.7706 6.37158 10.6998 6.37158 10.6231 6.37158C10.5583 6.37158 10.4993 6.37158 10.4344 6.37158C10.399 6.37158 10.3636 6.37158 10.3341 6.37748C10.2339 6.38338 10.1277 6.38928 10.0274 6.40697C9.92718 6.42466 9.82691 6.45415 9.73254 6.48954C9.70305 6.50134 9.66766 6.51903 9.63817 6.53083C9.5438 6.57801 9.46123 6.63699 9.37866 6.70187C9.35507 6.72546 9.32558 6.74906 9.30198 6.77265C9.20172 6.87291 9.12504 6.98498 9.06016 7.10294C8.99529 7.2268 8.954 7.35655 8.93041 7.49221C8.90682 7.62786 8.90092 7.76352 8.89502 7.90507C8.89502 7.96995 8.89502 8.02893 8.89502 8.09381C8.89502 8.17048 8.89502 8.24126 8.89502 8.31793V9.33829V10.6595C8.89502 10.7361 8.89502 10.8069 8.89502 10.8836C8.89502 10.9485 8.89502 11.0074 8.89502 11.0723C8.90092 11.208 8.90682 11.3495 8.93041 11.4852C8.954 11.6208 8.99529 11.7506 9.06016 11.8744C9.12504 11.9983 9.20172 12.1104 9.30198 12.2047C9.40225 12.305 9.51431 12.3817 9.63227 12.4466C9.75613 12.5114 9.88589 12.5527 10.0215 12.5763C10.1572 12.5999 10.2929 12.6117 10.4344 12.6117C10.4993 12.6117 10.5583 12.6117 10.6231 12.6117C10.6998 12.6117 10.7706 12.6117 10.8473 12.6117H13.1888C13.2655 12.6117 13.3362 12.6117 13.4129 12.6117C13.4778 12.6117 13.5368 12.6117 13.6017 12.6117C13.7373 12.6058 13.8789 12.5999 14.0145 12.5763C14.1502 12.5527 14.2799 12.5114 14.4038 12.4466C14.5276 12.3817 14.6397 12.305 14.7341 12.2047C14.8343 12.1045 14.911 11.9924 14.9759 11.8744C15.0408 11.7506 15.0821 11.6208 15.1056 11.4852C15.1292 11.3495 15.141 11.2139 15.141 11.0723C15.141 11.0074 15.141 10.9485 15.141 10.8836C15.141 10.8069 15.141 10.7361 15.141 10.6595V8.31793C15.141 8.24716 15.141 8.17638 15.141 8.0997Z" fill="black"/>
<path d="M13.8371 10.2285C13.843 10.2049 13.8489 10.1813 13.8548 10.1577C14.1143 9.12554 13.4832 7.89874 12.4098 7.25586C12.8816 7.89285 13.0881 8.66549 12.9052 9.33786C12.8875 9.39684 12.8699 9.45582 12.8463 9.51481C12.8227 9.49711 12.7932 9.47942 12.7519 9.46172C12.7519 9.46172 11.6843 8.80114 10.5283 7.63923C10.4988 7.60974 11.1476 8.56522 11.879 9.33786C11.531 9.14323 10.5696 8.44136 9.95622 7.88695C10.0329 8.01081 10.1214 8.13467 10.2157 8.24673C10.723 8.89551 11.3894 9.69175 12.1857 10.3051C11.6254 10.6472 10.835 10.6767 10.0506 10.3051C9.85596 10.2167 9.67312 10.1046 9.50208 9.98075C9.83236 10.5116 10.3455 10.9716 10.9707 11.2429C11.7138 11.5614 12.457 11.5437 13.0055 11.2488C13.0055 11.2488 13.0114 11.2488 13.0114 11.2429C13.035 11.2311 13.0586 11.2134 13.0822 11.2016C13.3476 11.066 13.8666 10.9303 14.1497 11.473C14.2323 11.5968 14.3797 10.889 13.8371 10.2285Z" fill="white"/>
</g>
<defs>
<linearGradient id="paint0_linear" x1="7.39453" y1="2.70909" x2="11.9946" y2="17.6798" gradientUnits="userSpaceOnUse">
<stop stop-color="#FBF54E"/>
<stop offset="1" stop-color="#FF7038"/>
</linearGradient>
<clipPath id="clip0">
<rect width="6.25781" height="6.25781" fill="white" transform="translate(8.88281 6.36523)"/>
</clipPath>
</defs>
</svg>
